<?xml version="1.0" encoding="UTF-8"?>
<svg id="_レイヤー_2" data-name="レイヤー 2" xmlns="http://www.w3.org/2000/svg" xmlns:xlink="http://www.w3.org/1999/xlink" viewBox="0 0 302.26 338.71">
  <defs>
    <style>
      .cls-1 {
        fill: url(#_名称未設定グラデーション_5-11);
      }

      .cls-1, .cls-2, .cls-3, .cls-4, .cls-5, .cls-6, .cls-7, .cls-8, .cls-9, .cls-10, .cls-11, .cls-12, .cls-13, .cls-14 {
        stroke-width: 0px;
      }

      .cls-2 {
        fill: url(#_名称未設定グラデーション_10);
      }

      .cls-3, .cls-15, .cls-16, .cls-17 {
        fill: #231815;
      }

      .cls-15 {
        stroke: url(#_名称未設定グラデーション_84-2);
      }

      .cls-15, .cls-4, .cls-5, .cls-16, .cls-6, .cls-7, .cls-8, .cls-9, .cls-10, .cls-11, .cls-12, .cls-13 {
        fill-rule: evenodd;
      }

      .cls-15, .cls-18, .cls-16, .cls-17 {
        stroke-miterlimit: 10;
      }

      .cls-15, .cls-16, .cls-17 {
        stroke-width: 2px;
      }

      .cls-4 {
        fill: url(#_名称未設定グラデーション_5);
      }

      .cls-18 {
        fill: #efefef;
        stroke: #231815;
      }

      .cls-5 {
        fill: url(#_名称未設定グラデーション_5-10);
      }

      .cls-16 {
        stroke: url(#_名称未設定グラデーション_84);
      }

      .cls-17 {
        stroke: url(#_名称未設定グラデーション_84-3);
      }

      .cls-6 {
        fill: url(#_名称未設定グラデーション_5-3);
      }

      .cls-7 {
        fill: url(#_名称未設定グラデーション_5-2);
      }

      .cls-8 {
        fill: url(#_名称未設定グラデーション_5-8);
      }

      .cls-9 {
        fill: url(#_名称未設定グラデーション_5-4);
      }

      .cls-10 {
        fill: url(#_名称未設定グラデーション_5-5);
      }

      .cls-11 {
        fill: url(#_名称未設定グラデーション_5-9);
      }

      .cls-12 {
        fill: url(#_名称未設定グラデーション_5-6);
      }

      .cls-13 {
        fill: url(#_名称未設定グラデーション_5-7);
      }

      .cls-14 {
        fill: #fff;
      }
    </style>
    <linearGradient id="_名称未設定グラデーション_84" data-name="名称未設定グラデーション 84" x1="0" y1="169.36" x2="302.26" y2="169.36" gradientUnits="userSpaceOnUse">
      <stop offset=".17" stop-color="#b1751f"/>
      <stop offset=".21" stop-color="#cb9233"/>
      <stop offset=".28" stop-color="#f6c155"/>
      <stop offset=".32" stop-color="#f7e486"/>
      <stop offset=".34" stop-color="#f8f29a"/>
      <stop offset=".42" stop-color="#e6d27b"/>
      <stop offset=".56" stop-color="#c9a049"/>
      <stop offset=".67" stop-color="#b7802a"/>
      <stop offset=".73" stop-color="#b1751f"/>
      <stop offset=".82" stop-color="#f6c155"/>
      <stop offset=".86" stop-color="#f8f29a"/>
    </linearGradient>
    <linearGradient id="_名称未設定グラデーション_84-2" data-name="名称未設定グラデーション 84" x1="18.03" y1="196.72" x2="284.24" y2="196.72" xlink:href="#_名称未設定グラデーション_84"/>
    <linearGradient id="_名称未設定グラデーション_84-3" data-name="名称未設定グラデーション 84" x1="151.13" y1="69.87" x2="151.13" y2="15.82" xlink:href="#_名称未設定グラデーション_84"/>
    <linearGradient id="_名称未設定グラデーション_5" data-name="名称未設定グラデーション 5" x1="27.06" y1="214.18" x2="68.52" y2="214.18" gradientTransform="translate(2.2 -81.42) rotate(1.88)" gradientUnits="userSpaceOnUse">
      <stop offset=".17" stop-color="#b1751f"/>
      <stop offset=".21" stop-color="#cb9233"/>
      <stop offset=".28" stop-color="#f6c155"/>
      <stop offset=".82" stop-color="#f6c155"/>
      <stop offset=".86" stop-color="#f8f29a"/>
    </linearGradient>
    <linearGradient id="_名称未設定グラデーション_5-2" data-name="名称未設定グラデーション 5" x1="41.39" y1="238.71" x2="57.73" y2="238.71" xlink:href="#_名称未設定グラデーション_5"/>
    <linearGradient id="_名称未設定グラデーション_5-3" data-name="名称未設定グラデーション 5" x1="37.2" y1="224.37" x2="55.15" y2="224.37" xlink:href="#_名称未設定グラデーション_5"/>
    <linearGradient id="_名称未設定グラデーション_5-4" data-name="名称未設定グラデーション 5" x1="31.73" y1="202.73" x2="52.09" y2="202.73" xlink:href="#_名称未設定グラデーション_5"/>
    <linearGradient id="_名称未設定グラデーション_5-5" data-name="名称未設定グラデーション 5" x1="45.72" y1="255.18" x2="67.81" y2="255.18" xlink:href="#_名称未設定グラデーション_5"/>
    <linearGradient id="_名称未設定グラデーション_5-6" data-name="名称未設定グラデーション 5" x1="4853.64" y1="55.99" x2="4895.1" y2="55.99" gradientTransform="translate(5129.27 -81.42) rotate(178.12) scale(1 -1)" xlink:href="#_名称未設定グラデーション_5"/>
    <linearGradient id="_名称未設定グラデーション_5-7" data-name="名称未設定グラデーション 5" x1="4867.97" y1="80.52" x2="4884.31" y2="80.52" gradientTransform="translate(5129.27 -81.42) rotate(178.12) scale(1 -1)" xlink:href="#_名称未設定グラデーション_5"/>
    <linearGradient id="_名称未設定グラデーション_5-8" data-name="名称未設定グラデーション 5" x1="4863.78" y1="66.18" x2="4881.73" y2="66.18" gradientTransform="translate(5129.27 -81.42) rotate(178.12) scale(1 -1)" xlink:href="#_名称未設定グラデーション_5"/>
    <linearGradient id="_名称未設定グラデーション_5-9" data-name="名称未設定グラデーション 5" x1="4858.31" y1="44.53" x2="4878.66" y2="44.53" gradientTransform="translate(5129.27 -81.42) rotate(178.12) scale(1 -1)" xlink:href="#_名称未設定グラデーション_5"/>
    <linearGradient id="_名称未設定グラデーション_5-10" data-name="名称未設定グラデーション 5" x1="4872.3" y1="96.98" x2="4894.39" y2="96.98" gradientTransform="translate(5129.27 -81.42) rotate(178.12) scale(1 -1)" xlink:href="#_名称未設定グラデーション_5"/>
    <linearGradient id="_名称未設定グラデーション_5-11" data-name="名称未設定グラデーション 5" x1="149.8" y1="293.34" x2="149.8" y2="83.02" gradientTransform="matrix(1,0,0,1,0,0)" xlink:href="#_名称未設定グラデーション_5"/>
    <linearGradient id="_名称未設定グラデーション_10" data-name="名称未設定グラデーション 10" x1="179.38" y1="-769.96" x2="179.38" y2="-779.85" gradientTransform="translate(210.88 923.82) rotate(-20.03)" gradientUnits="userSpaceOnUse">
      <stop offset=".48" stop-color="#b1751f"/>
      <stop offset=".61" stop-color="#cb9233"/>
      <stop offset=".82" stop-color="#f6c155"/>
    </linearGradient>
  </defs>
  <g id="_レイヤー_1-2" data-name="レイヤー 1">
    <g>
      <path class="cls-16" d="M301.26,17.91c0-2.77,0,85.59,0,85.59,0,38.97-10.22,77.81-30.37,115.43-44.1,82.19-110.46,114.46-119.74,118.68-9.29-4.22-75.7-36.49-119.79-118.68C11.22,181.32,1,142.48,1,103.5V17.92L151.46,1.01h0s149.81,17.99,149.81,16.9Z"/>
      <path class="cls-15" d="M151.15,316.91c-19.82-10.83-68.97-42.68-103.54-107.13-18.96-35.41-28.58-71.89-28.58-108.41v-24.97l264.21.38v24.59c0,36.53-9.62,73-28.58,108.42-34.57,64.43-83.69,96.28-103.5,107.12Z"/>
      <polygon class="cls-17" points="20.79 68.85 20.79 32.42 151.1 16.83 281.48 32.42 281.48 68.87 20.79 68.85"/>
      <g>
        <path class="cls-14" d="M54.73,59.55c-.16,0-.32-.12-.36-.28l-2.45-7.32h-10.92l-2.38,7.32c-.04.16-.2.28-.36.28h-4.39c-.16,0-.24-.12-.2-.28l9.62-27.15c.04-.16.2-.28.36-.28h5.94c.16,0,.32.12.36.28l9.46,27.15c.04.16-.04.28-.2.28h-4.47ZM50.62,47.91l-4.2-12.67-4.12,12.67h8.31Z"/>
        <path class="cls-14" d="M74.32,59.55c-.16,0-.28-.12-.28-.28l.08-2.53c-1.39,2.02-3.52,3.21-6.25,3.21-5.66,0-8.63-4.59-8.63-10.53s3.25-10.65,8.71-10.65c2.69,0,4.79,1.07,6.18,3.05l-.12-2.38c0-.16.12-.28.28-.28h4.24c.16,0,.28.12.28.28l-.08,9.86.08,9.97c0,.16-.12.28-.28.28h-4.2ZM69.14,56.58c3.21,0,5.03-2.38,5.11-7.09.04-4.71-1.78-7.32-4.99-7.36-3.48-.04-5.19,2.61-5.19,6.97,0,4.75,1.74,7.48,5.07,7.48Z"/>
        <path class="cls-14" d="M80.66,59.55c-.16,0-.28-.12-.28-.28l.12-10.01-.12-9.82c0-.16.12-.28.28-.28h4.2c.16,0,.28.12.28.28l-.16,3.29c1.54-2.45,4.2-3.72,7.13-3.72.36,0,.75.04,1.11.12.16,0,.28.16.28.32v3.17c0,.16-.12.28-.28.24-.28,0-.63-.04-.99-.04-3.84,0-6.97,2.26-7.09,6.89v9.58c0,.16-.12.28-.28.28h-4.2Z"/>
        <path class="cls-14" d="M105.91,58.95c0,.16-.12.32-.28.36-.95.32-2.18.59-3.29.59-3.21,0-6.1-1.62-6.1-6.18v-11.01h-2.33c-.16,0-.28-.12-.28-.28v-3.01c0-.16.12-.28.28-.28h2.33l-.04-4.83c0-.16.12-.28.28-.28h4.24c.16,0,.28.12.28.28l-.04,4.83h4.71c.16,0,.28.12.28.28v3.01c0,.16-.12.28-.28.28h-4.71l.04,10.89c0,2.06.83,2.69,2.38,2.69.91,0,1.66-.16,2.26-.32.16-.04.28.08.28.2v2.77Z"/>
        <path class="cls-14" d="M116.68,42.37c-2.3,0-4.47,1.82-5.19,5.19l.08,11.72c0,.16-.12.28-.28.28h-4.16c-.16,0-.28-.12-.28-.28l.12-13.7-.12-13.46c0-.16.12-.28.28-.28h4.16c.16,0,.28.12.28.28l-.04,9.74c1.35-1.94,3.44-3.17,6.37-3.17,4.47,0,7.21,2.69,7.09,8.63v4.24l.08,7.72c0,.16-.12.28-.28.28h-4.27c-.16,0-.28-.12-.28-.28l.08-7.64v-4.83c-.04-3.09-1.58-4.43-3.64-4.43Z"/>
        <path class="cls-14" d="M144.82,60.1c-7.16,0-11.8-3.21-12.03-9.7,0-.16.12-.28.28-.28h4.51c.16,0,.28.12.32.28.32,3.6,2.02,5.86,7.05,5.86,3.84,0,6.29-1.23,6.29-4.32,0-6.85-17.89-1.62-17.89-12.47,0-5.11,4.04-8.19,10.69-8.19s10.61,2.61,11.28,8.47c.04.16-.08.28-.24.28h-4.51c-.16,0-.28-.12-.32-.28-.28-2.97-2.45-4.59-6.41-4.59-3.4,0-5.7,1.19-5.7,3.84,0,6.45,17.93,1.39,17.93,12.27,0,5.78-4.43,8.83-11.24,8.83Z"/>
        <path class="cls-14" d="M175.85,52.58c.16,0,.28.12.24.28-.55,3.96-3.88,7.16-9.38,7.16-6.57,0-10.09-4.39-10.09-10.61s3.76-10.73,9.94-10.73,9.94,4.27,10.02,11.28c0,.16-.12.28-.28.28h-14.92c.2,4.35,1.98,6.41,5.42,6.41,2.49,0,4.12-1.23,4.71-3.8,0-.16.16-.28.32-.28h4.04ZM166.59,42.01c-2.85,0-4.55,1.74-5.07,5.03h9.9c-.2-2.65-1.7-5.03-4.83-5.03Z"/>
        <path class="cls-14" d="M187.13,60.02c-6.33,0-9.97-4.16-9.97-10.61s3.64-10.73,10.05-10.73c5.15,0,8.43,2.97,8.83,7.36.04.16-.08.28-.24.28h-3.84c-.16,0-.28-.12-.32-.28-.48-2.61-2.14-3.96-4.43-3.96-3.52,0-5.19,2.53-5.19,7.28s1.7,7.24,5.19,7.28c2.61.04,4.32-1.62,4.59-4.59.04-.16.16-.28.32-.28h3.96c.16,0,.28.12.24.28-.36,4.59-3.88,7.96-9.18,7.96Z"/>
        <path class="cls-14" d="M204.11,60.02c-4.24,0-6.97-2.85-6.97-8v-4.2l-.08-8.39c0-.16.12-.28.28-.28h4.27c.16,0,.28.12.28.28l-.04,8.39v4.08c0,2.89,1.5,4.39,3.68,4.39,2.41,0,4.63-2.02,5.03-6.26v-2.22l-.08-8.39c0-.16.12-.28.28-.28h4.35c.16,0,.28.12.28.28l-.08,9.3v10.53c0,.16-.12.28-.28.28h-4.08c-.16,0-.28-.12-.28-.28l.12-2.69c-1.31,1.9-3.64,3.44-6.69,3.44Z"/>
        <path class="cls-14" d="M217.25,59.55c-.16,0-.28-.12-.28-.28l.12-10.01-.12-9.82c0-.16.12-.28.28-.28h4.2c.16,0,.28.12.28.28l-.16,3.29c1.54-2.45,4.2-3.72,7.13-3.72.36,0,.75.04,1.11.12.16,0,.28.16.28.32v3.17c0,.16-.12.28-.28.24-.28,0-.63-.04-.99-.04-3.84,0-6.97,2.26-7.09,6.89v9.58c0,.16-.12.28-.28.28h-4.2Z"/>
        <path class="cls-14" d="M231.3,37.1c-.16,0-.28-.12-.28-.28v-4.16c0-.16.12-.28.28-.28h4.28c.16,0,.28.12.28.28v4.16c0,.16-.12.28-.28.28h-4.28ZM231.3,59.55c-.16,0-.28-.12-.28-.28l.04-10.05-.04-9.78c0-.16.12-.28.28-.28h4.28c.16,0,.28.12.28.28l-.08,9.78.08,10.05c0,.16-.12.28-.28.28h-4.28Z"/>
        <path class="cls-14" d="M249.2,58.95c0,.16-.12.32-.28.36-.95.32-2.18.59-3.28.59-3.21,0-6.1-1.62-6.1-6.18v-11.01h-2.33c-.16,0-.28-.12-.28-.28v-3.01c0-.16.12-.28.28-.28h2.33l-.04-4.83c0-.16.12-.28.28-.28h4.24c.16,0,.28.12.28.28l-.04,4.83h4.71c.16,0,.28.12.28.28v3.01c0,.16-.12.28-.28.28h-4.71l.04,10.89c0,2.06.83,2.69,2.38,2.69.91,0,1.66-.16,2.26-.32.16-.04.28.08.28.2v2.77Z"/>
        <path class="cls-14" d="M259.37,66c-.04.16-.2.28-.36.28h-4c-.12,0-.24-.12-.2-.28l2.18-6.33-8.08-20.23c-.08-.16,0-.28.16-.28h4.83c.16,0,.32.12.36.28l5.15,14.09,4.31-14.09c.04-.16.2-.28.36-.28h4.32c.16,0,.24.12.2.28l-9.22,26.56Z"/>
      </g>
      <g>
        <path class="cls-4" d="M23.93,81.54l21.39,33.32c2.54,3.92,6.14,16.04,7.25,22.01l4.48,24.04c.55,2.94,4.91,25.98,4.91,25.98l-4-8.52c-3.13-6.67-5.5-14.58-6.95-23.24l-2.46-14.67c-1.07-6.4-3.04-12.04-5.68-16.3l-10.92-17.6c-3.02-4.87-5.37-11.14-6.85-18.26l-1.16-6.75Z"/>
        <g>
          <path class="cls-7" d="M46.19,156.98l-10.11-8.46h0c1.69,6.23,4.42,11.11,7.74,13.89l7.94,6.64-.06-.34c-.9-5.3-2.89-9.55-5.51-11.74Z"/>
          <path class="cls-6" d="M43.74,141.9l-11.33-9.48,1.02,6.38h0c.9,3.31,2.35,5.91,4.12,7.39l12.04,10.07-.5-2.98c-.87-5.14-2.81-9.26-5.34-11.38Z"/>
          <path class="cls-9" d="M41.95,126.62l-14.08-22.56,2.21,13.83c1.06,6.64,3.54,12,6.8,14.73l10.14,8.48h0c-.96-5.69-2.72-10.69-5.07-14.47Z"/>
          <path class="cls-10" d="M61.21,188.23l-2.74-5.47c-2.57-5.14-5.64-9.24-9.03-12.08l-9.49-7.94h0c1.09,4.01,2.78,7.24,4.85,9.29l16.41,16.21Z"/>
        </g>
      </g>
      <g>
        <path class="cls-12" d="M278.37,81.54l-21.39,33.32c-2.54,3.92-6.14,16.04-7.25,22.01l-4.48,24.04c-.55,2.94-4.91,25.98-4.91,25.98l4-8.52c3.13-6.67,5.5-14.58,6.95-23.24l2.46-14.67c1.07-6.4,3.04-12.04,5.68-16.3l10.92-17.6c3.02-4.87,5.37-11.14,6.85-18.26l1.16-6.75Z"/>
        <g>
          <path class="cls-13" d="M256.12,156.98l10.11-8.46h0c-1.69,6.23-4.42,11.11-7.74,13.89l-7.94,6.64.06-.34c.9-5.3,2.89-9.55,5.51-11.74Z"/>
          <path class="cls-8" d="M258.56,141.9l11.33-9.48-1.02,6.38h0c-.9,3.31-2.35,5.91-4.12,7.39l-12.04,10.07.5-2.98c.87-5.14,2.81-9.26,5.34-11.38Z"/>
          <path class="cls-11" d="M260.36,126.62l14.08-22.56-2.21,13.83c-1.06,6.64-3.54,12-6.8,14.73l-10.14,8.48h0c.96-5.69,2.72-10.69,5.07-14.47Z"/>
          <path class="cls-5" d="M241.1,188.23l2.74-5.47c2.57-5.14,5.64-9.24,9.03-12.08l9.49-7.94h0c-1.09,4.01-2.78,7.24-4.85,9.29l-16.41,16.21Z"/>
        </g>
      </g>
      <g>
        <polygon class="cls-18" points="71.66 235.51 88.81 235.51 98.61 218.33 81.46 218.33 71.66 235.51"/>
        <polygon class="cls-18" points="197.16 146.28 206.34 130.39 181.57 130.39 142.39 198.25 92.63 198.25 87.19 207.85 82.33 216.38 99.48 216.38 103.27 209.74 132.19 209.74 122.39 226.92 139.55 226.92 147.88 212.31 171.3 212.31 169.66 215.15 177.4 215.15 192.09 189.71 184.96 189.71 210.14 146.28 197.16 146.28"/>
        <polygon class="cls-18" points="106.77 214.36 100.26 225.85 119.19 225.85 125.7 214.36 106.77 214.36"/>
        <polygon class="cls-18" points="189.08 129.65 184.08 120.39 200.65 120.39 207.32 127.07 241.57 97.64 229.48 94.28 216.41 97.42 196.77 82.12 193.26 86.9 189.9 109.43 179.09 109.43 175.58 120.84 181.17 129.65 189.08 129.65"/>
      </g>
      <g>
        <path class="cls-3" d="M201.96,158.87c-3.43-.98-7.11-1.7-10.98-2.15.56-1.01,1.14-1.81,1.73-2.38,4.64-4.42,14.26-2.05,14.35-2.03l4.13,1.05-2.24-3.62c-.36-.59-8.5-13.64-19.1-21.32,1.16-.78,2.38-1.49,3.02-1.61l3.03-.58-2.08-2.28c-.61-.67-15.21-16.17-49.43-16.57-1.04-2.02-3.77-6.44-8.88-9.52-6.83-4.12-11.36-9.44-11.36-11.16l-2.28-3.1-1.04,2.43c-.11.25-2.01,4.74-3.16,9.06-2.05-2.88-4.05-6.05-4.29-7.34l-2.84-4.71-.57,4.83c-.08.71-1.88,16.68,3.08,26.91-3.35,2.45-12.45,9.37-15.28,14.39-2.53,4.48-2.14,7.38-1.91,9.11.04.33.1.78.1.86l-.12.27c-.54,1.28-1.22,2.88-5.86,4.99-5.5,2.49-26.19,11.5-26.4,11.59l-1.23.53.21,1.32c.08.49,2.06,12.16,12.02,17.45,9.73,5.18,24.14,2.63,24.76,2.51.19-.03,18.89-3.55,27.41-.45,2.99,1.09,5.47,2.68,7.38,4.73,3.49,9.68.99,20.03-7.43,30.77-21.13,26.94-18.38,52.66-18.25,53.74l1.01,8.61,2.36-8.35c.06-.22,5.59-19.45,15.24-28.99-2.95,9.66-8.17,30.34-5.08,47.63l1.4,7.85,1.97-7.73c.08-.3,7.77-30.06,21.83-44.41,4.61-4.71,9.81-8.05,15.31-11.59,10.7-6.88,21.74-13.99,27.55-31.53.48.92.9,2.16,1,3.74.31,4.78-2.21,13.23-16.02,26.41-10.5,10.01-5.45,26.75-5.23,27.45l1.68,5.41,1.62-5.43c.05-.17,5.3-17.33,21.87-31.32,11.92-10.07,12.47-20.56,12.48-34.73,3.26,4.58,7.76,15.85,1.75,40.28l-2.19,8.9,5.28-7.5c.71-1,16.78-24.29,10.24-52.53,3.06.58,14.64,3.96,14.64,3.96,0,0-2.02-14.32-35.22-23.85Z"/>
        <g>
          <path class="cls-1" d="M201.99,158.86c-3.43-.98-7.11-1.7-10.98-2.15.56-1.01,1.14-1.81,1.73-2.38,4.64-4.42,14.26-2.05,14.35-2.03l4.13,1.05-2.24-3.62c-.36-.59-8.5-13.64-19.1-21.32,1.16-.78,2.38-1.49,3.02-1.61l3.03-.58-2.08-2.28c-.61-.67-15.21-16.17-49.43-16.57-1.04-2.02-3.77-6.44-8.88-9.52-6.83-4.12-11.36-9.44-11.36-11.16l-2.28-3.1-1.04,2.43c-.11.25-2.01,4.74-3.16,9.06-2.05-2.88-4.05-6.05-4.29-7.34l-2.84-4.71-.57,4.83c-.08.71-1.88,16.68,3.08,26.91-3.35,2.45-12.45,9.37-15.28,14.39-2.53,4.48-2.14,7.38-1.91,9.11.04.33.1.78.1.86l-.12.27c-.54,1.28-1.22,2.88-5.86,4.99-5.5,2.49-26.19,11.5-26.4,11.59l-1.23.53.21,1.32c.08.49,2.06,12.16,12.02,17.45,9.73,5.18,24.14,2.63,24.76,2.51.19-.03,18.89-3.55,27.41-.45,2.99,1.09,5.47,2.68,7.38,4.73,3.49,9.68.99,20.03-7.43,30.77-21.13,26.94-18.38,52.66-18.25,53.74l1.01,8.61,2.36-8.35c.06-.22,5.59-19.45,15.24-28.99-2.95,9.66-8.17,30.34-5.08,47.63l1.4,7.85,1.97-7.73c.08-.3,7.77-30.06,21.83-44.41,4.61-4.71,9.81-8.05,15.31-11.59,10.7-6.88,21.74-13.99,27.55-31.53.48.92.9,2.16,1,3.74.31,4.78-2.21,13.23-16.02,26.41-10.5,10.01-5.45,26.75-5.23,27.45l1.68,5.41,1.62-5.43c.05-.17,5.3-17.33,21.87-31.32,11.92-10.07,12.47-20.56,12.48-34.73,3.26,4.58,7.76,15.85,1.75,40.28l-2.19,8.9,5.28-7.5c.71-1,16.78-24.29,10.24-52.53,3.06.58,14.64,3.96,14.64,3.96,0,0-2.02-14.32-35.22-23.85ZM71.6,156.26c-.42,2.11-1.32,5.13-3.18,7.71-1.13-2.16-1.77-4.17-2.1-5.41,1.17-.51,3.05-1.33,5.28-2.3ZM160.68,226.71c-5.42,3.49-11.02,7.09-15.91,12.08-10.04,10.25-16.8,27.33-20.19,37.55-.61-20.29,7.48-42.46,7.57-42.72l1.66-4.5-4.15,2.41c-8.07,4.69-13.93,15.69-17.41,24,1.17-9.78,5.06-25.06,17.2-40.56,11.58-14.78,10.65-26.87,7.83-34.41l-.11-.3-.22-.24c-2.32-2.59-5.35-4.58-8.99-5.91-9.4-3.43-28.43.14-29.22.3-.01,0-.12.02-.3.05,9.37-5.58,30.79-16.51,55.44-16.79-3.08,1.59-6.71,4.28-9.09,8.69l-1.02,1.89,2.13-.19c.28-.03,28.37-2.41,38.74,9.71,3.27,3.82,4.43,8.76,3.49,14.72l-.43,1.57c-5.14,18.58-15.78,25.42-27.04,32.67ZM220.01,175.2l-1.86.33.5,1.82c4.59,16.77.31,32.21-3.81,41.82,3.94-28.02-7.68-34.97-8.24-35.29l-2.57-1.46v5c.02,14.88.04,24.72-11.25,34.25-11.5,9.72-17.74,20.68-20.7,27.21-.51-5.25-.09-12.97,5.37-18.18,11.95-11.39,17.69-21.25,17.08-29.29-.43-5.62-3.92-8.17-4.15-8.33,1.14-6.77-.19-12.42-3.97-16.84-9.45-11.04-31.28-10.99-38.42-10.65,4.52-6.27,12.07-7.8,12.16-7.82l8.93-1.73-9.08-.55c-32.4-1.97-60.66,15.46-66.7,19.47-4.8.26-11.82.03-17.04-2.74-2.93-1.56-5.05-3.82-6.58-6.13,3.13-3.81,4.14-8.62,4.45-10.95,6.36-2.78,14.24-6.23,17.34-7.63,5.42-2.46,6.74-4.7,7.62-6.79l.1-.24c.39-.9.27-1.81.16-2.69-.2-1.47-.46-3.49,1.5-6.96,3.04-5.39,15.37-14.07,15.49-14.15l1.3-.91-.8-1.37c-3.26-5.6-3.79-14.17-3.71-19.96,1.7,2.61,3.59,5.06,4.18,5.83l2.63,3.38.44-4.26c.25-2.41,1.3-5.72,2.22-8.26,2.66,3.68,7.65,7.52,11.18,9.65,5.64,3.4,7.94,8.88,7.96,8.93l.44,1.08h1.16c26.67.06,41.27,9.81,46.13,13.79-1.65.96-3.21,2.17-3.64,2.51l-1.9,1.51,2.05,1.3c7.75,4.92,14.58,13.68,17.91,18.4-3.9-.35-9.72-.1-13.52,3.52-1.33,1.27-2.49,3.13-3.55,5.69l-.9,2.18,2.35.2c4.55.38,8.84,1.15,12.77,2.27,14.51,4.16,24.09,10.71,30.21,16.57-6.85-4.24-10.97-3.6-11.23-3.55Z"/>
          <path class="cls-2" d="M111.64,130.04c-6.82,2.87-5.65,12.33-5.65,12.33,10.74-2.2,16.32-15.59,16.32-15.59,0,0-3.85.39-10.67,3.26Z"/>
        </g>
      </g>
      <g>
        <g>
          <path class="cls-14" d="M167.8,284.37h-44.87l.22-.81c.02-.07.09-.12.16-.12h44.88l-.23.81c-.02.07-.09.12-.16.12Z"/>
          <path class="cls-14" d="M178.1,284.32h-.5l.25-.88h.63l-.22.76c-.02.07-.09.12-.16.12Z"/>
          <path class="cls-14" d="M177.09,284.32h-.5l.25-.88h.63l-.22.76c-.02.07-.09.12-.16.12Z"/>
          <path class="cls-14" d="M176.08,284.32h-.5l.25-.88h.63l-.22.76c-.02.07-.09.12-.16.12Z"/>
          <path class="cls-14" d="M175.07,284.32h-.5l.25-.88h.63l-.22.76c-.02.07-.09.12-.16.12Z"/>
          <path class="cls-14" d="M174.06,284.32h-.5l.25-.88h.63l-.22.76c-.02.07-.09.12-.16.12Z"/>
          <path class="cls-14" d="M173.05,284.32h-.5l.25-.88h.63l-.22.76c-.02.07-.09.12-.16.12Z"/>
          <path class="cls-14" d="M172.03,284.32h-.5l.25-.88h.63l-.22.76c-.02.07-.09.12-.16.12Z"/>
          <path class="cls-14" d="M171.02,284.32h-.5l.25-.88h.63l-.22.76c-.02.07-.09.12-.16.12Z"/>
          <path class="cls-14" d="M170.01,284.32h-.5l.25-.88h.63l-.22.76c-.02.07-.09.12-.16.12Z"/>
          <path class="cls-14" d="M169,284.32h-.5l.25-.88h.63l-.22.76c-.02.07-.09.12-.16.12Z"/>
        </g>
        <path class="cls-14" d="M133.42,280.48l-1.62-2.81c-.05-.08,0-.19.1-.19,1.25-.1,2.12-1.02,2.56-2.23h0c.41-1.12-.43-2.31-1.62-2.31h-6.75c-.1,0-.19.07-.21.16l-.07.28c-.02.08.04.16.12.16h.21c.51.04.86.52.73,1.01l-1.59,5.88c-.09.35-.41.59-.77.59h-.57c-.06,0-.11.04-.13.1l-.1.42c-.02.08.04.16.13.16h4.92c.07,0,.12-.05.13-.12l.03-.33c0-.08-.05-.14-.13-.14h-.28c-.5,0-.86-.47-.73-.95l.71-2.58c.02-.06.07-.1.12-.1h.3s.09.03.12.07l2.09,4.08s.07.07.12.07h3.35c.06,0,.11-.04.13-.1l.11-.41c.02-.08-.04-.16-.13-.16h-.25c-.41,0-.8-.21-1.02-.56ZM129.87,276.86h-1.01c-.08,0-.15-.08-.13-.16l.76-3.07c.01-.06.07-.1.13-.1l.75.03c.92.03,1.57.91,1.33,1.8l-.03.11c-.22.82-.96,1.4-1.82,1.4Z"/>
        <path class="cls-14" d="M153.25,273.46l.14-.5s0-.03-.02-.03h-3.96s-.02,0-.02.02l-.14.52s0,.03.02.03h.66c.44,0,.71.48.49.86l-2.93,4.94s-.04.01-.05,0l-.83-6.3s-.03-.06-.06-.06h-1.39s-.08.02-.1.06l-3.72,6.03s-.04.01-.05-.01l-.56-4.9c-.03-.31.21-.58.52-.58h.74s.04-.01.05-.04l.14-.53s0-.03-.02-.03h-4.92s-.06.02-.06.05l-.12.46s0,.03.02.03h0c.68,0,1.25.51,1.32,1.18l.8,7.03s.01.02.02.02h1.41s.02,0,.02-.01l3.83-6.22s.04-.01.05,0l.82,6.17s.03.05.06.05h1.4s.08-.02.11-.06l4.35-6.99c.43-.69,1.12-1.12,1.93-1.13.03,0,.06-.02.07-.05Z"/>
        <path class="cls-14" d="M159.67,281.1c-.44,0-.81-.31-.9-.74l-1.47-7.42s0-.01-.01-.01h-1.43s0,0-.01,0l-5.04,7.07c-.5.7-1.31,1.12-2.17,1.12h0s-.01,0-.01.01l-.12.48s.02.08.06.08h3.98s.01,0,.01-.01l.14-.52s-.02-.06-.05-.06h-.71c-.35,0-.56-.37-.39-.67l1-1.68s0,0,.01,0h3.27s.01,0,.01.01l.38,1.66c.08.35-.19.68-.54.68h-.8s-.08.03-.09.07l-.14.51s0,.02.01.02h5.12s.01,0,.01-.01l.15-.53s-.01-.06-.04-.06h-.25ZM153.1,278.08l2.06-2.94s.02,0,.02,0l.56,2.94s0,.02-.01.02h-2.62s-.02-.01-.01-.02Z"/>
        <path class="cls-14" d="M159.02,272.98l-.13.52h0s0,0,0,0c.7,0,1.3.5,1.43,1.18l1.33,7.01h1.46l5.39-7.26c.42-.56,1.08-.89,1.78-.89h.02s.05-.02.05-.04l.14-.53s-.01-.04-.03-.04h-4s-.05.02-.06.04l-.13.51s0,.04.03.04h.75c.4,0,.64.45.41.78l-3.65,5.16-1.07-5.3c-.07-.34.19-.66.54-.66h.76s.04-.01.04-.03l.13-.49s-.01-.05-.04-.05h-5.08s-.06.02-.07.05Z"/>
        <path class="cls-14" d="M170.9,272.93h8.36s.09.05.07.1l-.58,2.14s-.04.06-.08.06h-.29s-.07-.02-.08-.05l-.23-.54c-.29-.7-.98-1.16-1.75-1.16h-1.58c-.08,0-.16.06-.18.14l-.75,3.24h1.09c.58,0,1.12-.3,1.43-.79l.41-.66s.01-.01.02-.01h.52s.03.02.02.03l-.93,3.57s-.03.05-.06.05h-.45s-.06-.03-.07-.06l-.05-.66c-.03-.47-.42-.84-.9-.84h-1.28l-.77,2.86c-.09.32.15.63.48.63h1.74c.8,0,1.56-.37,2.06-.99l.81-1.02h.46l-.73,2.69s-.03.05-.07.05h-9l.13-.5s.04-.05.07-.05h.44c.53,0,.99-.36,1.12-.86l1.56-5.99c.1-.38-.19-.75-.58-.75h-.56s-.04-.02-.03-.04l.15-.53s.02-.03.04-.03Z"/>
        <path class="cls-14" d="M137.26,281.7h-1.73l.46-1.77c.03-.1.11-.16.21-.16h1.77l-.45,1.74c-.03.12-.14.2-.26.2Z"/>
      </g>
    </g>
  </g>
</svg>